<?xml version="1.0" encoding="UTF-8" standalone="no"?>
<!-- Created with Inkscape (http://www.inkscape.org/) -->

<svg
   width="36.054626mm"
   height="76.834869mm"
   viewBox="0 0 36.054626 76.834869"
   version="1.1"
   id="svg1"
   xml:space="preserve"
   inkscape:version="1.4 (e7c3feb1, 2024-10-09)"
   sodipodi:docname="hegedu-silhouette.svg"
   xmlns:inkscape="http://www.inkscape.org/namespaces/inkscape"
   xmlns:sodipodi="http://sodipodi.sourceforge.net/DTD/sodipodi-0.dtd"
   xmlns="http://www.w3.org/2000/svg"
   xmlns:svg="http://www.w3.org/2000/svg"><sodipodi:namedview
     id="namedview1"
     pagecolor="#ffffff"
     bordercolor="#000000"
     borderopacity="0.25"
     inkscape:showpageshadow="2"
     inkscape:pageopacity="0.0"
     inkscape:pagecheckerboard="0"
     inkscape:deskcolor="#d1d1d1"
     inkscape:document-units="mm"
     showgrid="false"
     inkscape:zoom="1.7285229"
     inkscape:cx="37.315097"
     inkscape:cy="150.41744"
     inkscape:window-width="1496"
     inkscape:window-height="905"
     inkscape:window-x="0"
     inkscape:window-y="34"
     inkscape:window-maximized="1"
     inkscape:current-layer="layer1" /><defs
     id="defs1" /><g
     inkscape:label="Layer 1"
     inkscape:groupmode="layer"
     id="layer1"
     transform="translate(-87.023324,-110.11972)"><path
       style="fill:#000000"
       d="m 100.05575,186.63822 c -0.51459,-0.54094 -0.647047,-1.12531 -0.63836,-2.8163 0.0039,-0.76835 0.04725,-1.6256 0.09622,-1.905 0.08466,-0.483 0.04611,-0.72046 -0.783412,-4.826 -0.479849,-2.3749 -0.864348,-4.32626 -0.854443,-4.33637 0.0099,-0.0101 0.130396,0.0115 0.267755,0.0481 0.235098,0.0625 0.251233,0.0947 0.275136,0.54753 0.01859,0.35216 0.0583,0.48109 0.148167,0.48109 0.09132,0 0.122774,-0.11141 0.122774,-0.43484 v -0.43484 l 0.392817,0.0538 c 0.21605,0.0296 0.4637,0.0538 0.550334,0.0538 0.136075,0 0.157516,0.0691 0.157516,0.508 0,0.39512 0.02822,0.508 0.127,0.508 0.0975,0 0.126996,-0.10818 0.126996,-0.46566 v -0.46567 h 0.61659 0.61659 l 0.0191,0.4381 c 0.0209,0.48154 0.0448,0.53886 0.18728,0.45079 0.0567,-0.035 0.0867,-0.2362 0.0732,-0.49033 -0.0249,-0.46828 -0.0685,-0.42628 0.62101,-0.59708 0.22847,-0.0566 0.22881,-0.056 0.254,0.47309 0.0334,0.70245 0.18795,0.67933 0.21939,-0.0328 0.0218,-0.49491 0.0469,-0.56834 0.20797,-0.61047 0.10072,-0.0263 0.19717,-0.0339 0.21433,-0.0167 0.0172,0.0172 -0.14204,0.90147 -0.35378,1.96514 -0.4592,2.30688 -0.76888,4.14708 -0.9036,5.36961 -0.0888,0.80557 -0.0807,1.00143 0.0798,1.94733 0.25438,1.49855 0.30542,2.38852 0.18446,3.2158 -0.17451,1.19349 -0.48142,1.60831 -1.23624,1.67091 -0.45457,0.0377 -0.476,0.0296 -0.78862,-0.29907 z m 22.40168,0.26465 c -0.0285,-0.0284 -0.0544,-1.71436 -0.0576,-3.7465 -0.003,-2.03213 -0.0426,-8.19058 -0.0874,-13.68545 -0.0448,-5.49487 -0.12219,-15.15321 -0.17196,-21.463 -0.18697,-23.70474 -0.23519,-28.60599 -0.28216,-28.68199 -0.0265,-0.043 -0.33691,-0.16379 -0.68971,-0.26852 -0.51017,-0.15145 -0.63315,-0.21915 -0.60092,-0.33079 0.0223,-0.0772 0.0824,-0.30229 0.13349,-0.5002 0.0511,-0.19791 0.11385,-0.35983 0.13937,-0.35983 0.0255,0 0.32446,0.19222 0.66431,0.42716 l 0.6179,0.42715 0.0531,2.98068 c 0.0292,1.63937 0.0907,5.95248 0.13664,9.58468 0.0459,3.6322 0.12099,9.13765 0.16677,12.23433 0.0458,3.09668 0.1218,9.04028 0.16892,13.208 0.0471,4.16771 0.10534,8.77781 0.12937,10.24466 0.024,1.46685 0.0804,5.58165 0.12536,9.144 0.0449,3.56235 0.10266,7.45808 0.12834,8.65717 l 0.0467,2.18017 h -0.28438 c -0.15641,0 -0.30765,-0.0233 -0.33609,-0.0517 z m -25.376511,-0.68392 c -0.795858,-0.0838 -2.201389,-0.40022 -2.977038,-0.67021 -1.072824,-0.37342 -1.607287,-0.64125 -2.585941,-1.29587 -1.552567,-1.03849 -2.738509,-2.37262 -3.495796,-3.93259 -1.207861,-2.48814 -1.321371,-4.98189 -0.334337,-7.3452 1.368309,-3.27622 1.564462,-3.90801 1.498695,-4.82718 -0.02245,-0.3137 -0.112789,-0.71586 -0.200763,-0.89367 l -0.159953,-0.32331 0.6774,-0.005 c 1.785119,-0.0132 3.055586,-1.34223 3.760539,-3.9338 0.462037,-1.69856 0.618897,-4.31103 0.323965,-5.39556 -0.183712,-0.67554 -0.435415,-1.1764 -0.766039,-1.52432 -0.307087,-0.32316 -1.022021,-0.61363 -1.5103,-0.61363 -0.29562,0 -0.335631,-0.021 -0.281753,-0.14817 0.290588,-0.68564 0.311206,-0.82555 0.219197,-1.48736 -0.05061,-0.36403 -0.211441,-0.99268 -0.357406,-1.397 -0.728268,-2.01732 -0.978042,-3.45986 -0.895422,-5.17141 0.0633,-1.31127 0.283851,-2.25064 0.766515,-3.26471 0.901219,-1.89344 2.430636,-3.14888 4.787985,-3.93027 1.175488,-0.38963 2.825414,-0.66458 2.85695,-0.47608 0.0078,0.0466 -0.335109,0.14635 -0.762,0.22175 -1.870633,0.33039 -3.360494,0.9456 -4.489577,1.8539 -0.83227,0.66953 -1.319127,1.28635 -1.836719,2.32702 -1.192608,2.39784 -1.191911,5.47463 0.002,8.97449 0.367079,1.07604 0.416852,1.59178 0.184009,1.90672 -0.09987,0.13508 -0.181575,0.26619 -0.181575,0.29136 0,0.0252 0.180975,0.0461 0.402166,0.0466 0.853769,0.002 1.615183,0.58069 2.055559,1.56293 0.337655,0.75313 0.46263,1.53933 0.458005,2.88124 -0.0049,1.40955 -0.134828,2.44727 -0.471885,3.76766 -0.648559,2.54069 -1.945783,4.02487 -3.611279,4.13176 l -0.626368,0.0402 0.04866,0.26353 c 0.231526,1.25386 0.181069,1.48906 -0.70947,3.30706 -0.778518,1.58932 -0.967787,2.12197 -1.15229,3.2428 -0.157185,0.95488 -0.119083,2.23793 0.09782,3.29383 0.607168,2.95581 2.501934,5.48957 5.113995,6.83864 1.543861,0.79737 3.042956,1.15023 5.081108,1.196 1.16696,0.0262 1.316244,0.046 1.369882,0.18197 0.140361,0.35571 0.115382,0.36479 -0.965066,0.35067 -0.570442,-0.007 -1.170517,-0.0276 -1.3335,-0.0447 z m 5.081301,-0.12213 c 0.003,-0.2546 0.15282,-0.31101 0.97237,-0.36569 3.92986,-0.26223 6.51004,-1.1925 8.34802,-3.00988 1.69984,-1.68077 2.35997,-3.55193 2.25262,-6.38516 -0.078,-2.05944 -0.37349,-3.27265 -1.25085,-5.1361 -0.70427,-1.49581 -0.87494,-2.16115 -0.75247,-2.93343 0.046,-0.28987 0.1211,-0.62573 0.16696,-0.74635 0.11513,-0.30282 0.12455,-0.29279 -0.27645,-0.29443 -0.5232,-0.002 -1.42854,-0.21119 -1.85369,-0.42803 -0.55691,-0.28405 -1.42712,-1.21253 -1.78866,-1.90843 -0.38347,-0.73811 -0.69874,-1.88487 -0.83103,-3.02274 -0.13108,-1.1275 -0.0567,-3.56088 0.12997,-4.24899 0.42218,-1.55671 1.15669,-2.36526 2.21461,-2.43786 0.38331,-0.0263 0.41236,-0.0439 0.38839,-0.23462 -0.14152,-1.12617 -0.11542,-1.47083 0.18306,-2.4169 0.72012,-2.28249 0.88566,-4.32084 0.51225,-6.30761 -0.52032,-2.76843 -2.15965,-4.76522 -4.72651,-5.75711 -0.78845,-0.30468 -2.15843,-0.66823 -2.51807,-0.66823 -0.22329,0 -0.41505,-0.19233 -0.30324,-0.30414 0.0622,-0.0622 2.04187,0.3516 2.68742,0.56178 2.24871,0.73215 3.95409,2.20738 4.79504,4.14793 0.96155,2.21886 0.9668,5.42965 0.0132,8.11497 -0.31649,0.8913 -0.38002,1.62782 -0.209,2.42312 0.0701,0.32597 0.15084,0.6515 0.17944,0.7234 0.0438,0.11001 -0.039,0.13108 -0.52186,0.13291 -1.25158,0.005 -1.93009,0.76806 -2.27467,2.55897 -0.2458,1.27755 -0.10272,4.21723 0.26852,5.51705 0.37303,1.30604 1.12186,2.35325 2.01614,2.81948 0.48733,0.25407 0.56895,0.26948 1.43121,0.27015 0.87456,6.8e-4 0.91222,0.008 0.86417,0.17004 -0.33995,1.14569 -0.21459,1.96368 0.55227,3.6037 0.64148,1.3719 0.86587,2.01887 1.09128,3.14653 0.46941,2.34834 0.44286,4.2523 -0.083,5.94977 -1.17235,3.78453 -5.05158,6.1163 -10.85332,6.52382 -0.67074,0.0471 -0.82526,0.0363 -0.8242,-0.0579 z m -5.843301,-0.71176 c -3.070092,-0.48543 -5.613574,-2.1612 -7.081135,-4.6654 -0.739966,-1.26266 -1.266358,-2.98308 -1.353941,-4.42511 -0.105127,-1.73089 0.198019,-2.94718 1.295563,-5.19812 0.723768,-1.48436 0.734974,-1.51702 0.741031,-2.159 0.0034,-0.35851 -0.02184,-0.75138 -0.05604,-0.87303 -0.06127,-0.21792 -0.05456,-0.22189 0.453449,-0.26795 2.467739,-0.22377 4.153319,-3.52534 4.159288,-8.14686 0.002,-1.52363 -0.131316,-2.29657 -0.534356,-3.09889 -0.423059,-0.84215 -0.922721,-1.27895 -1.734842,-1.51657 l -0.34332,-0.10045 -0.0035,-0.56305 c -0.0027,-0.43303 -0.09428,-0.84232 -0.396517,-1.77251 -0.631079,-1.94229 -0.762107,-2.69525 -0.769313,-4.42086 -0.0079,-1.90274 0.190492,-2.84947 0.887321,-4.23334 1.03919,-2.06378 3.225892,-3.45964 6.154521,-3.92868 l 0.6985,-0.11187 v 0.31393 c 0,0.17266 -0.133678,3.59949 -0.297063,7.61518 -0.163385,4.01569 -0.275437,7.33624 -0.249004,7.37901 0.02643,0.0428 0.261257,0.0778 0.521829,0.0778 h 0.473769 l -0.05464,1.4605 c -0.03005,0.80327 -0.08014,2.95592 -0.111307,4.78366 l -0.05666,3.32317 -0.600291,0.001 c -0.690976,0.001 -0.838008,0.0654 -0.7982,0.34695 0.02699,0.19092 0.06536,0.20347 0.694178,0.22699 l 0.665603,0.0249 -0.05341,2.98077 c -0.06726,3.75386 -0.101203,4.24005 -0.290757,4.16496 -0.283507,-0.1123 -0.690707,-0.14754 -0.690707,-0.0598 0,0.0485 0.401165,2.0633 0.891478,4.47724 0.887269,4.36828 0.891032,4.39194 0.797091,5.01239 -0.103134,0.68115 -0.126444,2.88703 -0.03438,3.25383 l 0.0575,0.22911 -1.131012,-0.008 c -0.622056,-0.005 -1.454862,-0.0594 -1.850678,-0.12199 z m -1.905535,-14.97802 c 0.63504,-0.37215 1.230129,-1.47209 1.405005,-2.59694 0.117119,-0.75333 0.06218,-1.45359 -0.227744,-2.90291 -0.297675,-1.48807 -0.27009,-2.41584 0.09327,-3.13715 0.414644,-0.82312 0.970963,-1.0675 1.371101,-0.60231 0.153196,0.1781 0.195232,0.32824 0.195232,0.69729 v 0.47033 l -0.156146,-0.19283 c -0.09707,-0.11988 -0.20751,-0.17313 -0.291906,-0.14074 -0.395589,0.1518 -0.584983,1.32321 -0.270179,1.67106 0.562019,0.62103 1.269933,-0.45363 1.256555,-1.90752 -0.0094,-1.01685 -0.342426,-1.57387 -1.016721,-1.70037 -0.655558,-0.12299 -1.284858,0.38899 -1.768908,1.43912 -0.54617,1.18489 -0.590344,2.35645 -0.164719,4.36852 0.365194,1.72639 0.176033,2.96123 -0.55877,3.64763 -0.449463,0.41987 -1.044117,0.2712 -1.267726,-0.31694 -0.119743,-0.31495 -0.08834,-1.2226 0.05226,-1.51036 0.119387,-0.24434 0.115468,-0.12174 -0.0088,0.27517 -0.07039,0.22483 0.151273,0.47636 0.361106,0.40977 0.262338,-0.0833 0.560406,-0.83951 0.509366,-1.29233 -0.08941,-0.79329 -0.523059,-1.01605 -0.975276,-0.501 -0.402921,0.4589 -0.56579,1.05672 -0.567228,2.08206 -0.0011,0.79241 0.02175,0.93004 0.210419,1.26672 0.43855,0.7826 1.030022,0.93657 1.819799,0.47373 z m -1.204517,-0.0651 c -0.103979,-0.0502 -0.284954,-0.28368 -0.402167,-0.51889 -0.282677,-0.56726 -0.298507,-1.58406 -0.03683,-2.36559 0.274421,-0.8196 0.669487,-1.14357 0.841811,-0.69032 0.119513,0.31434 0.101735,0.66283 -0.05362,1.05111 -0.142723,0.3567 -0.355652,0.4876 -0.243794,0.14988 0.0347,-0.10478 0.06772,-0.32385 0.07337,-0.48684 0.0083,-0.24056 -0.0207,-0.29633 -0.154309,-0.29633 -0.395189,0 -0.686444,1.19305 -0.478674,1.96077 0.121532,0.44906 0.586104,0.87556 0.953714,0.87556 0.546165,0 1.077997,-0.53758 1.38899,-1.40402 0.223491,-0.62265 0.190358,-1.86119 -0.08323,-3.11125 -0.468569,-2.14095 -0.18861,-3.78145 0.826036,-4.8404 0.320485,-0.33447 0.408977,-0.38099 0.724751,-0.38099 0.652655,0 1.035797,0.60907 1.011944,1.60866 l -0.01111,0.46567 -0.05849,-0.508 c -0.03217,-0.2794 -0.103449,-0.59177 -0.158404,-0.69416 -0.357284,-0.66565 -1.241068,-0.56204 -1.740178,0.20402 -0.544502,0.83573 -0.597729,1.99257 -0.183441,3.98696 0.336018,1.61761 0.258831,2.73939 -0.258774,3.76083 -0.324821,0.64101 -0.540917,0.90438 -0.92932,1.13263 -0.367345,0.21587 -0.718373,0.25025 -1.02828,0.1007 z m 3.524358,-6.80865 c -0.231587,-0.2793 -0.05874,-1.40553 0.19194,-1.2506 0.051,0.0315 0.06943,0.18066 0.04269,0.34546 -0.0563,0.34696 0.150198,0.49182 0.336974,0.23639 0.06312,-0.0863 0.114756,-0.12939 0.114756,-0.0957 0,0.1532 -0.246834,0.62055 -0.399508,0.75643 -0.157862,0.1405 -0.176575,0.14103 -0.286852,0.008 z m 0.693045,-1.01205 c 0.0041,-0.0986 0.02412,-0.11869 0.05115,-0.0512 0.02446,0.0611 0.02145,0.13414 -0.0067,0.16227 -0.02813,0.0281 -0.04814,-0.0219 -0.04447,-0.11112 z m 4.90338,21.91455 c -3.3e-4,-0.59372 -0.0597,-1.44145 -0.13189,-1.88383 -0.23085,-1.41423 -0.23772,-1.97753 -0.0408,-3.34433 0.22255,-1.5446 0.66935,-4.00132 1.00858,-5.54567 0.14728,-0.67049 0.21998,-1.1753 0.17585,-1.22114 -0.0458,-0.0476 -0.16041,-0.0393 -0.29317,0.0212 -0.32141,0.14645 -0.36742,0.12689 -0.41375,-0.17586 -0.0232,-0.15134 -0.0656,-1.74982 -0.0942,-3.55218 l -0.0521,-3.27701 0.61064,-0.025 c 0.45882,-0.0188 0.63268,-0.0601 0.69927,-0.16606 0.16922,-0.26935 -0.0733,-0.40926 -0.70952,-0.40926 H 102.513 l -0.0469,-0.52917 c -0.0258,-0.29104 -0.0677,-2.12937 -0.0931,-4.08517 -0.0254,-1.95579 -0.069,-3.87032 -0.0968,-4.25449 l -0.0506,-0.6985 h 0.76701 c 0.42186,0 0.78572,-0.0303 0.80857,-0.0672 0.0228,-0.037 -0.0872,-2.46584 -0.24444,-5.3975 -0.37616,-7.01079 -0.36996,-6.89875 -0.46758,-8.45442 -0.0464,-0.74038 -0.0696,-1.36097 -0.0515,-1.37909 0.0622,-0.0622 1.79063,0.33129 2.38299,0.54257 2.95441,1.05376 4.66924,3.25749 5.04479,6.48302 0.18713,1.60726 0.002,3.24292 -0.60934,5.37494 -0.32289,1.12664 -0.34802,1.28474 -0.30103,1.89414 0.0498,0.64561 0.0458,0.66491 -0.13658,0.66537 -0.94722,0.002 -1.89077,0.97937 -2.28903,2.3702 -0.43188,1.50817 -0.39993,4.35685 0.0694,6.18713 0.24079,0.93906 0.80436,2.01374 1.37708,2.62598 0.72113,0.77089 1.52681,1.16601 2.66585,1.30739 0.38894,0.0483 0.40032,0.0576 0.33866,0.27756 -0.10884,0.38831 -0.0733,1.81233 0.0533,2.1326 0.0644,0.16298 0.37855,0.87058 0.69811,1.57244 0.92284,2.02687 1.22579,3.55177 1.151,5.79356 -0.0531,1.5922 -0.21945,2.30552 -0.82324,3.53043 -1.08833,2.20789 -3.40631,3.73837 -6.6377,4.38263 -1.04495,0.20833 -2.54805,0.38427 -3.28297,0.38427 h -0.40863 z m 5.92727,-14.07049 c 0.38961,-0.27618 0.5391,-0.65313 0.5775,-1.45624 0.059,-1.23292 -0.28737,-2.293 -0.85279,-2.61036 -0.21431,-0.12029 -0.24158,-0.11617 -0.42142,0.0637 -0.41382,0.41385 -0.0981,2.01825 0.38364,1.9497 0.15262,-0.0217 0.18496,-0.0797 0.17991,-0.32281 -0.003,-0.16298 -0.0344,-0.37253 -0.0689,-0.46566 -0.0345,-0.0931 9.6e-4,-0.059 0.0788,0.0758 0.19765,0.34231 0.24852,1.11678 0.10069,1.53287 -0.34265,0.96444 -1.29865,0.54389 -1.70574,-0.75035 -0.18291,-0.58154 -0.15481,-1.8756 0.0756,-3.48298 0.17406,-1.21413 0.0923,-2.07889 -0.28942,-3.06201 -0.66795,-1.72019 -1.90932,-2.27686 -2.50568,-1.12364 -0.43108,0.83362 -0.0764,2.77063 0.57248,3.12648 0.2144,0.11758 0.24425,0.11351 0.41426,-0.0565 0.14235,-0.14234 0.183,-0.28386 0.18225,-0.63443 -0.001,-0.63114 -0.20438,-1.08622 -0.48457,-1.08622 -0.11879,0 -0.21598,0.0381 -0.21598,0.0847 0,0.0466 -0.0381,0.0847 -0.0847,0.0847 -0.11109,0 -0.10854,-0.49893 0.004,-0.82236 0.1099,-0.31524 0.4217,-0.47466 0.71229,-0.36417 0.11505,0.0437 0.32512,0.23959 0.46684,0.43522 0.54434,0.75144 0.6286,1.65679 0.34198,3.67475 -0.0924,0.65059 -0.16794,1.41149 -0.16786,1.69089 4.6e-4,1.59938 0.85203,3.29678 1.82732,3.64232 0.36378,0.12888 0.56282,0.10097 0.87922,-0.12331 z m -0.8944,-0.12301 c -0.33669,-0.14913 -0.8335,-0.73375 -1.09717,-1.29109 -0.49633,-1.04917 -0.5689,-2.05529 -0.28536,-3.95658 0.23199,-1.55567 0.19397,-2.43538 -0.13717,-3.17326 -0.30556,-0.68087 -0.69268,-1.02873 -1.14485,-1.02873 -0.38406,0 -0.64098,0.20261 -0.72197,0.56934 -0.0868,0.39286 -0.10809,0.4163 -0.11506,0.12644 -0.0147,-0.60884 0.38064,-1.11912 0.86691,-1.11912 0.34804,0 0.68195,0.27123 1.01932,0.82797 0.70844,1.16907 0.85208,2.25459 0.56156,4.24395 -0.2235,1.53038 -0.20112,2.50092 0.0744,3.22542 0.36648,0.96385 1.03627,1.44477 1.60357,1.1514 0.32245,-0.16674 0.41759,-0.33431 0.57362,-1.0103 l 0.12051,-0.5221 -0.0461,0.58258 c -0.0254,0.32042 -0.0964,0.70142 -0.15791,0.84666 -0.21994,0.51942 -0.66098,0.72818 -1.11426,0.52742 z m 1.16177,-2.253 c 0,-0.11641 0.0192,-0.16404 0.0427,-0.10583 0.0235,0.0582 0.0235,0.15346 0,0.21167 -0.0235,0.0582 -0.0427,0.0106 -0.0427,-0.10584 z m -0.67036,-0.0191 c -0.25165,-0.30691 -0.32791,-1.32479 -0.10937,-1.45985 0.21904,-0.13537 0.61772,0.407 0.71373,0.97097 l 0.0504,0.29634 -0.11988,-0.2598 c -0.14438,-0.31287 -0.34625,-0.49439 -0.4669,-0.41983 -0.1154,0.0713 -0.11349,0.51683 0.003,0.73478 0.10685,0.19964 0.0577,0.29455 -0.0712,0.13739 z m -3.61564,-4.61776 c -0.11606,-0.17539 -0.23139,-0.45161 -0.25628,-0.61383 l -0.0453,-0.29495 0.11441,0.29633 c 0.0629,0.16298 0.17772,0.30865 0.25509,0.32371 0.11685,0.0227 0.14067,-0.0485 0.14067,-0.42101 0,-0.42402 0.007,-0.43846 0.12784,-0.26585 0.26842,0.38322 0.23678,1.29448 -0.045,1.29448 -0.0443,0 -0.17545,-0.14349 -0.29152,-0.31888 z m -0.37735,-1.08517 c 0.004,-0.0986 0.0241,-0.11869 0.0512,-0.0512 0.0245,0.0611 0.0214,0.13414 -0.007,0.16227 -0.0281,0.0281 -0.0481,-0.0219 -0.0445,-0.11112 z m 16.36936,21.64644 c -0.0195,-0.0194 -0.0354,-1.24812 -0.0354,-2.7305 v -2.69522 h 0.26194 0.26195 l -0.0535,0.40217 c -0.0739,0.55531 0.0635,1.20818 0.29354,1.39441 0.27555,0.22313 0.49618,0.18494 0.80142,-0.13871 l 0.27299,-0.28946 0.0606,1.98103 c 0.0333,1.08956 0.038,2.01762 0.0103,2.06234 -0.0475,0.0768 -1.79773,0.0899 -1.87387,0.0139 z m -0.035,-8.13929 c 2.2e-4,-1.37138 0.0375,-5.82718 0.0829,-9.90176 0.0454,-4.07459 0.1429,-13.59958 0.21674,-21.16667 0.0738,-7.56708 0.16038,-16.3555 0.19229,-19.52982 0.0506,-5.03522 0.0865,-6.02938 0.21157,-5.86312 0.0146,0.0194 -0.02,4.66443 -0.0769,10.32228 -0.0569,5.65785 -0.1876,18.87855 -0.29047,29.37933 -0.10405,10.62136 -0.22018,19.12802 -0.26176,19.17276 -0.0433,0.0466 -0.0746,-0.96739 -0.0743,-2.413 z m -20.13227,-6.5786 0.0236,-3.70416 h 0.55033 0.55033 l 0.0221,3.70416 0.0221,3.70417 h -0.59594 -0.59594 z m -1.151184,3.55784 -0.243396,-0.0363 0.05384,-2.04652 c 0.02961,-1.12559 0.07732,-2.7609 0.10603,-3.63403 l 0.05219,-1.5875 h 0.510368 0.510369 l -0.05519,1.2065 c -0.03036,0.66358 -0.05533,2.32093 -0.0555,3.683 l -3.1e-4,2.4765 -0.3175,-0.0127 c -0.174625,-0.007 -0.427028,-0.029 -0.560896,-0.049 z m 2.553814,-3.14416 c -0.01,-1.77586 -0.0194,-3.42887 -0.0212,-3.67334 l -0.003,-0.4445 0.39276,-0.0254 0.39276,-0.0254 0.0504,1.63408 c 0.0957,3.10242 0.11783,5.57339 0.0502,5.61517 -0.0373,0.023 -0.24241,0.0658 -0.45582,0.0951 l -0.38802,0.0532 z m -3.770918,-4.47585 c 0.174625,-0.0183 0.460375,-0.0183 0.635,0 0.174625,0.0183 0.03175,0.0332 -0.3175,0.0332 -0.34925,0 -0.492125,-0.0149 -0.3175,-0.0332 z m 1.397,4.3e-4 c 0.151342,-0.0188 0.398992,-0.0188 0.550333,0 0.151342,0.0188 0.02752,0.0342 -0.275166,0.0342 -0.302684,0 -0.426509,-0.0154 -0.275167,-0.0342 z m 1.268108,1.4e-4 c 0.15031,-0.0187 0.41701,-0.019 0.59267,-6.8e-4 0.17566,0.0183 0.0527,0.0336 -0.27328,0.034 -0.32596,3.8e-4 -0.46969,-0.0146 -0.31939,-0.0333 z m 1.22956,4.6e-4 c 0.12806,-0.0194 0.33761,-0.0194 0.46567,0 0.12805,0.0194 0.0233,0.0353 -0.23284,0.0353 -0.25611,0 -0.36089,-0.0159 -0.23283,-0.0353 z m 1.14111,-4.6e-4 c 0.1503,-0.0187 0.417,-0.019 0.59267,-6.8e-4 0.17566,0.0183 0.0527,0.0336 -0.27328,0.034 -0.32597,3.8e-4 -0.46969,-0.0146 -0.31939,-0.0333 z m -3.841368,-1.6534 c 0.02908,-0.7567 0.0735,-2.70933 0.0987,-4.33916 0.0252,-1.62983 0.06639,-3.16336 0.09153,-3.40783 l 0.04571,-0.4445 h 0.430177 0.430177 l -0.05488,0.9525 c -0.03019,0.52387 -0.05506,2.67652 -0.05527,4.78366 l -3.85e-4,3.83117 H 99.3556 98.836281 Z m 1.236278,1.34419 c -0.0214,-0.0213 -0.0198,-2.16608 0.003,-4.76608 l 0.0423,-4.72727 0.43629,-0.0253 0.43629,-0.0253 0.0521,0.7873 c 0.0287,0.43302 0.0609,2.57801 0.0717,4.76664 l 0.0196,3.97933 -0.51147,0.0248 c -0.28131,0.0136 -0.52896,0.007 -0.55034,-0.0141 z m 1.27327,-2.91052 c -1.1e-4,-1.61819 -0.0253,-3.77333 -0.056,-4.7892 l -0.0558,-1.84704 0.37349,0.0267 0.37348,0.0267 0.0538,2.794 c 0.0296,1.5367 0.0794,3.67982 0.11065,4.7625 l 0.0568,1.9685 h -0.42814 -0.42815 z m -3.301236,-7.239 c 3.06e-4,-0.19791 0.05737,-1.69333 0.12681,-3.32316 0.06944,-1.62984 0.164782,-3.93489 0.21187,-5.12234 0.100009,-2.52197 0.419159,-10.53158 0.716895,-17.99166 0.26481,-6.63509 0.255383,-6.46772 0.370776,-6.58311 0.07301,-0.073 0.09709,-0.002 0.09709,0.28584 0,0.36438 -0.23305,10.63848 -0.420357,18.5316 -0.04807,2.02565 -0.125558,5.3594 -0.172197,7.40833 -0.04664,2.04894 -0.108034,4.49686 -0.136436,5.43984 l -0.05164,1.7145 h -0.371686 -0.371686 z m 1.015469,-0.508 c 1.3e-5,-0.47731 0.03801,-2.41088 0.08444,-4.29683 0.04643,-1.88595 0.16108,-6.7437 0.25478,-10.795 0.0937,-4.0513 0.22625,-9.7663 0.294553,-12.7 0.115186,-4.94739 0.331294,-10.6868 0.434544,-11.54041 l 0.0441,-0.36442 0.35396,0.0258 0.35396,0.0258 0.0977,1.778 c 0.0537,0.9779 0.13944,2.55905 0.19044,3.51366 0.051,0.95462 0.18833,6.28862 0.30517,11.85334 0.11684,5.56471 0.26927,12.7049 0.33873,15.86708 0.0695,3.16218 0.1263,6.1435 0.1263,6.62517 v 0.87575 h -0.33867 -0.33867 l -1.6e-4,-1.4605 c -1.5e-4,-1.38756 -0.10885,-12.70405 -0.20718,-21.56884 -0.025,-2.25848 -0.0707,-6.55426 -0.10147,-9.54616 -0.0481,-4.68214 -0.0731,-5.43984 -0.1793,-5.43984 -0.1071,0 -0.11657,0.56657 -0.0718,4.29684 0.0283,2.36325 0.0724,6.54473 0.0979,9.29216 0.0255,2.74744 0.0821,8.42434 0.12589,12.61534 0.0437,4.191 0.0801,8.56297 0.0808,9.7155 l 0.001,2.0955 h -0.45814 -0.45814 l 0.0351,-2.4765 c 0.0193,-1.36208 0.0728,-8.0391 0.11877,-14.83784 0.046,-6.79873 0.10754,-14.23776 0.13674,-16.53116 0.0467,-3.67026 0.0379,-4.16984 -0.0737,-4.16984 -0.11121,0 -0.1338,0.93259 -0.18411,7.59884 -0.0315,4.17935 -0.0928,11.37073 -0.13622,15.98083 -0.04338,4.6101 -0.07936,9.74407 -0.07995,11.40883 l -0.0011,3.02684 h -0.423333 -0.423333 z m 3.131777,0.21167 c -4.8e-4,-0.36089 -0.0568,-3.20887 -0.12508,-6.32883 -0.0683,-3.11997 -0.18279,-8.49207 -0.25438,-11.938 -0.0716,-3.44594 -0.16758,-7.73219 -0.21329,-9.525 -0.11605,-4.55105 -0.11288,-4.91067 0.0433,-4.91067 0.0902,0 0.12724,0.0921 0.12782,0.3175 4.5e-4,0.17462 0.038,0.94615 0.0834,1.7145 0.0746,1.26193 0.38965,7.1114 0.84818,15.748 0.0927,1.74625 0.22545,4.18465 0.29497,5.41867 0.0695,1.23401 0.20171,3.69146 0.29373,5.461 0.092,1.76953 0.19151,3.5507 0.22109,3.95816 l 0.0538,0.74084 h -0.68632 -0.68632 z m -7.112852,-32.22674 c -0.639188,-0.20762 -0.919402,-1.36486 -0.519413,-2.1451 0.100659,-0.19635 0.256588,-0.39637 0.346508,-0.4445 0.188225,-0.10073 0.907511,-0.11861 0.965648,-0.024 0.02146,0.0349 -0.02261,0.29975 -0.09794,0.58851 -0.07533,0.28875 -0.113537,0.54843 -0.08491,0.57705 0.08655,0.0866 1.021053,-0.48507 1.064478,-0.65113 0.02224,-0.085 0.07409,-0.1546 0.115222,-0.1546 0.04114,0 0.07479,0.43815 0.07479,0.97367 0,0.59266 -0.03313,0.97366 -0.08467,0.97366 -0.04657,0 -0.08467,-0.0757 -0.08467,-0.16811 0,-0.12037 -0.143018,-0.24031 -0.503618,-0.42234 -0.276989,-0.13983 -0.523982,-0.22128 -0.548872,-0.181 -0.02489,0.0403 0.01383,0.27218 0.08604,0.51536 0.07221,0.24317 0.114832,0.4586 0.0947,0.47872 -0.122234,0.12224 -0.565931,0.1674 -0.823309,0.0838 z m 4.355233,-1.95743 c 0.149929,-3.43408 0.215722,-5.12452 0.217038,-5.57644 l 0.0014,-0.49644 -0.254,0.0373 c -0.1397,0.0205 -0.254,1.5e-4 -0.254,-0.0452 0,-0.0454 0.17145,-0.95584 0.381,-2.02327 0.20955,-1.06743 0.38105,-1.94763 0.38111,-1.95601 6.1e-5,-0.008 0.281521,-0.0152 0.625481,-0.0152 h 0.62538 l 0.40333,1.94733 c 0.22184,1.07104 0.4194,1.99158 0.43902,2.04565 0.0258,0.071 -0.05,0.079 -0.27242,0.0288 -0.23342,-0.0526 -0.31902,-0.041 -0.35318,0.048 -0.0248,0.0646 0.018,1.19466 0.0951,2.51118 0.25477,4.34981 0.26715,4.72201 0.15709,4.72201 -0.13747,0 -0.17659,-0.38548 -0.28358,-2.794 -0.11616,-2.61484 -0.22393,-4.2057 -0.29243,-4.31654 -0.0616,-0.0996 -1.02934,-0.11833 -1.08945,-0.0211 -0.03767,0.0609 -0.115235,1.42041 -0.304977,5.34501 -0.05059,1.04649 -0.115324,1.67624 -0.178405,1.73566 -0.07544,0.0711 -0.0858,-0.20898 -0.04355,-1.17673 z m -2.177711,0.83525 c -0.03253,-0.0325 -0.05914,-0.14804 -0.05914,-0.25669 0,-0.19558 0.0098,-0.19756 0.97929,-0.19756 h 0.979291 l -0.02679,0.23284 -0.02679,0.23283 -0.893362,0.0239 c -0.491348,0.0131 -0.919973,-0.003 -0.9525,-0.0353 z m -3.276471,-0.19525 c 0,-0.0438 0.0381,-0.10322 0.08467,-0.132 0.04657,-0.0288 0.08467,0.007 0.08467,0.0797 0,0.0726 -0.0381,0.132 -0.08467,0.132 -0.04657,0 -0.08467,-0.0359 -0.08467,-0.0797 z m 11.535831,-0.34236 c -0.22612,-0.0956 -0.22177,-0.0607 -0.0635,-0.5093 0.15625,-0.44286 0.16199,-0.67734 0.0166,-0.67734 -0.19711,0 -0.92218,0.51088 -0.9667,0.68113 -0.11216,0.42889 -0.19288,0.073 -0.19288,-0.85046 0,-0.94267 0.082,-1.2797 0.20082,-0.8255 0.0563,0.21524 0.87893,0.71095 0.99207,0.59782 0.0387,-0.0388 0.0106,-0.27474 -0.0626,-0.52441 -0.15491,-0.52845 -0.10546,-0.59917 0.42046,-0.60128 0.41828,-0.002 0.61577,0.1096 0.79102,0.44571 0.48819,0.93631 0.13071,2.20795 -0.64841,2.30662 -0.16299,0.0206 -0.38206,10e-4 -0.48684,-0.043 z m -3.57716,-1.44064 v -0.254 h 1.011 c 0.58865,0 1.03306,0.0357 1.0638,0.0854 0.029,0.047 0.0287,0.16128 -7.1e-4,0.254 -0.0495,0.15591 -0.12938,0.16857 -1.0638,0.16857 h -1.01029 z m 5.16466,-0.0473 c 0,-0.0726 0.0381,-0.10845 0.0847,-0.0797 0.0466,0.0288 0.0847,0.0882 0.0847,0.132 0,0.0438 -0.0381,0.0797 -0.0847,0.0797 -0.0466,0 -0.0847,-0.0594 -0.0847,-0.132 z m -10.192848,-1.14501 c -0.02112,-0.066 -0.05247,-0.1722 -0.06967,-0.23602 -0.02453,-0.091 -0.246458,-0.11284 -1.02968,-0.10125 -1.064877,0.0158 -1.238464,-0.0369 -1.238464,-0.37539 0,-0.34698 0.173427,-0.39739 1.262695,-0.36701 l 1.016379,0.0284 0.02463,-0.21167 c 0.01355,-0.11642 0.06273,-0.21167 0.109296,-0.21167 0.113737,0 0.158926,1.39894 0.04875,1.50912 -0.0576,0.0576 -0.09807,0.0463 -0.123931,-0.0345 z m 0.424606,-0.56825 c -0.02471,-0.04 -0.02326,-0.1555 0.0032,-0.25671 0.04587,-0.17541 0.09353,-0.18403 1.01754,-0.18403 h 0.969415 l -0.02679,0.23283 -0.02679,0.23284 -0.945828,0.0239 c -0.520205,0.0131 -0.966042,-0.009 -0.990749,-0.0488 z m -3.213978,-0.0739 c -0.09742,-0.0974 -0.06166,-0.19756 0.07055,-0.19756 0.06985,0 0.127,0.0572 0.127,0.127 0,0.13222 -0.100135,0.16798 -0.197555,0.0706 z m 10.97419,-0.29213 c -0.0696,-0.0696 -0.0632,-0.19794 0.0245,-0.48683 0.14229,-0.46884 0.15255,-0.6886 0.0321,-0.6886 -0.17608,0 -1.01193,0.59358 -1.01193,0.71862 0,0.0704 -0.0381,0.12805 -0.0847,0.12805 -0.0515,0 -0.0847,-0.381 -0.0847,-0.97367 0,-0.87899 0.0821,-1.23181 0.19029,-0.818 0.0415,0.15882 0.75256,0.60634 0.96337,0.60634 0.14812,0 0.14613,-0.0517 -0.0209,-0.54195 -0.16054,-0.47114 -0.11239,-0.55271 0.36395,-0.6166 0.89186,-0.11962 1.40943,1.25889 0.85291,2.27166 -0.0933,0.16983 -0.2619,0.3508 -0.37463,0.40217 -0.26472,0.12061 -0.72922,0.11996 -0.85036,-0.001 z m -3.22013,-1.07168 c -0.13684,-0.0222 -0.1905,-0.0888 -0.1905,-0.23664 v -0.20577 h 1.02162 1.02162 l -0.0268,0.23283 -0.0268,0.23283 -0.80433,0.004 c -0.44238,0.002 -0.89006,-0.0101 -0.99483,-0.0271 z m 4.91066,-0.12491 c 0.0194,-0.0582 0.067,-0.10584 0.10584,-0.10584 0.0388,0 0.0864,0.0476 0.10583,0.10584 0.0194,0.0582 -0.0282,0.10583 -0.10583,0.10583 -0.0776,0 -0.12524,-0.0476 -0.10584,-0.10583 z m -4.66283,-2.38251 c -0.0389,-0.0517 -0.13719,-0.41784 -0.21841,-0.81366 -0.0812,-0.39582 -0.16806,-0.80539 -0.19298,-0.91017 -0.0393,-0.16529 -0.0117,-0.1905 0.2087,-0.1905 0.20087,0 0.2652,0.0446 0.30756,0.21341 0.0295,0.11737 0.0145,0.28631 -0.0332,0.37543 -0.20801,0.38868 -0.0473,1.10532 0.28072,1.25168 0.17096,0.0763 0.16871,0.0817 -0.0515,0.12378 -0.12662,0.0242 -0.26206,0.002 -0.30097,-0.05 z m -3.444035,-0.15143 c 0.22985,-0.1808 0.233463,-0.19748 0.183403,-0.84665 -0.06233,-0.80832 -0.02693,-0.91625 0.300534,-0.91625 0.22098,0 0.248006,0.0249 0.207233,0.1905 -0.02579,0.10478 -0.110959,0.54293 -0.189269,0.97367 l -0.142382,0.78317 H 98.79441 98.497416 Z m -0.548359,-0.23696 c -0.216517,-0.21651 -0.219758,-0.60143 -0.0072,-0.86039 0.133381,-0.16253 0.192704,-0.18242 0.3175,-0.10644 0.340553,0.20733 0.357925,0.87217 0.02741,1.04906 -0.13172,0.0705 -0.202084,0.0534 -0.337667,-0.0822 z m 4.321254,-0.038 c -0.0551,-0.0664 -0.0884,-0.28161 -0.0739,-0.47821 0.0304,-0.41294 0.22839,-0.60228 0.47084,-0.45033 0.17891,0.11213 0.24814,0.75081 0.10064,0.92854 -0.12848,0.15481 -0.36913,0.15481 -0.49761,0 z"
       id="path1" /></g></svg>
